<mxfile host="drawio-plugin" modified="2023-05-01T18:17:15.047Z" agent="5.0 (Windows NT 6.2; Win64; x64) AppleWebKit/537.36 (KHTML, like Gecko) Chrome/104.0.5112.102 Safari/537.36" etag="31YdohwP4B0cs5ihBjW8" version="20.5.3" type="embed"><diagram name="Страница 1" id="HeO02ltLlQxuifa20E55"><mxGraphModel dx="1561" dy="801" grid="1" gridSize="10" guides="1" tooltips="1" connect="1" arrows="1" fold="1" page="1" pageScale="1" pageWidth="827" pageHeight="1169" background="#ffffff" math="0" shadow="0"><root><mxCell id="0"/><mxCell id="1" parent="0"/><mxCell id="BBihDYNwTmgTMU0dD1d8-13" value="&lt;b style=&quot;border-color: var(--border-color); font-size: 13px;&quot;&gt;Схема с информацией о парсинге (parse)&lt;/b&gt;" style="text;html=1;strokeColor=default;fillColor=none;align=center;verticalAlign=top;whiteSpace=wrap;rounded=0;dashed=1;dashPattern=12 12;" parent="1" vertex="1"><mxGeometry x="30" y="520" width="780" height="410" as="geometry"/></mxCell><mxCell id="3mXOkHMnSsZyCNefE_zm-1" value="Parsers Database Structure (PostgreSQL)" style="text;html=1;strokeColor=default;fillColor=none;align=center;verticalAlign=middle;whiteSpace=wrap;rounded=0;strokeWidth=1;fontSize=14;fontStyle=1" parent="1" vertex="1"><mxGeometry width="320" height="40" as="geometry"/></mxCell><mxCell id="jQQM8Qkv6BH_GQ0o3fSP-1" value="Version 1" style="text;html=1;strokeColor=none;fillColor=none;align=center;verticalAlign=middle;whiteSpace=wrap;rounded=0;" parent="1" vertex="1"><mxGeometry x="760" width="67" height="40" as="geometry"/></mxCell><mxCell id="jQQM8Qkv6BH_GQ0o3fSP-47" style="edgeStyle=orthogonalEdgeStyle;rounded=0;orthogonalLoop=1;jettySize=auto;html=1;exitX=1;exitY=0.5;exitDx=0;exitDy=0;entryX=0;entryY=0.25;entryDx=0;entryDy=0;startArrow=ERone;startFill=0;endArrow=ERmany;endFill=0;" parent="1" source="jQQM8Qkv6BH_GQ0o3fSP-3" target="jQQM8Qkv6BH_GQ0o3fSP-5" edge="1"><mxGeometry relative="1" as="geometry"><Array as="points"><mxPoint x="240" y="140"/><mxPoint x="240" y="190"/></Array></mxGeometry></mxCell><mxCell id="jQQM8Qkv6BH_GQ0o3fSP-3" value="&lt;div style=&quot;box-sizing:border-box;width:100%;background:#e4e4e4;padding:2px;&quot;&gt;sites&lt;/div&gt;&lt;table style=&quot;width:100%;font-size:1em;&quot; cellpadding=&quot;2&quot; cellspacing=&quot;0&quot;&gt;&lt;tbody&gt;&lt;tr&gt;&lt;td&gt;PK&lt;/td&gt;&lt;td&gt;site_id&lt;/td&gt;&lt;/tr&gt;&lt;tr&gt;&lt;td&gt;varchar(100)&lt;/td&gt;&lt;td&gt;url&lt;/td&gt;&lt;/tr&gt;&lt;tr&gt;&lt;td&gt;varchar(250)&lt;/td&gt;&lt;td&gt;name&lt;br&gt;&lt;/td&gt;&lt;/tr&gt;&lt;tr&gt;&lt;td&gt;timestampz&lt;/td&gt;&lt;td&gt;date_create&lt;/td&gt;&lt;/tr&gt;&lt;tr&gt;&lt;td&gt;timestampz&lt;/td&gt;&lt;td&gt;date_update&lt;/td&gt;&lt;/tr&gt;&lt;/tbody&gt;&lt;/table&gt;" style="verticalAlign=top;align=left;overflow=fill;html=1;whiteSpace=wrap;rounded=0;glass=0;shadow=0;imageAspect=1;" parent="1" vertex="1"><mxGeometry x="40" y="80" width="160" height="120" as="geometry"/></mxCell><mxCell id="jQQM8Qkv6BH_GQ0o3fSP-48" style="edgeStyle=orthogonalEdgeStyle;rounded=0;orthogonalLoop=1;jettySize=auto;html=1;exitX=1;exitY=0.5;exitDx=0;exitDy=0;entryX=0;entryY=0.75;entryDx=0;entryDy=0;endArrow=ERmany;endFill=0;startArrow=ERone;startFill=0;" parent="1" source="jQQM8Qkv6BH_GQ0o3fSP-4" target="jQQM8Qkv6BH_GQ0o3fSP-5" edge="1"><mxGeometry relative="1" as="geometry"/></mxCell><mxCell id="jQQM8Qkv6BH_GQ0o3fSP-4" value="&lt;div style=&quot;box-sizing:border-box;width:100%;background:#e4e4e4;padding:2px;&quot;&gt;options&lt;/div&gt;&lt;table style=&quot;width:100%;font-size:1em;&quot; cellpadding=&quot;2&quot; cellspacing=&quot;0&quot;&gt;&lt;tbody&gt;&lt;tr&gt;&lt;td&gt;PK&lt;/td&gt;&lt;td&gt;option_id&lt;/td&gt;&lt;/tr&gt;&lt;tr&gt;&lt;td&gt;varchar(100)&lt;/td&gt;&lt;td&gt;name&lt;/td&gt;&lt;/tr&gt;&lt;tr&gt;&lt;td&gt;varchar(250)&lt;/td&gt;&lt;td&gt;description&lt;/td&gt;&lt;/tr&gt;&lt;tr&gt;&lt;td&gt;json&lt;/td&gt;&lt;td&gt;settings&lt;/td&gt;&lt;/tr&gt;&lt;/tbody&gt;&lt;/table&gt;" style="verticalAlign=top;align=left;overflow=fill;html=1;whiteSpace=wrap;" parent="1" vertex="1"><mxGeometry x="40" y="240" width="160" height="120" as="geometry"/></mxCell><mxCell id="BBihDYNwTmgTMU0dD1d8-2" style="edgeStyle=orthogonalEdgeStyle;rounded=0;orthogonalLoop=1;jettySize=auto;html=1;exitX=1;exitY=0.25;exitDx=0;exitDy=0;endArrow=ERmany;endFill=0;startArrow=ERone;startFill=0;" parent="1" source="jQQM8Qkv6BH_GQ0o3fSP-5" target="BBihDYNwTmgTMU0dD1d8-1" edge="1"><mxGeometry relative="1" as="geometry"/></mxCell><mxCell id="BBihDYNwTmgTMU0dD1d8-4" style="edgeStyle=orthogonalEdgeStyle;rounded=0;orthogonalLoop=1;jettySize=auto;html=1;exitX=1;exitY=0.75;exitDx=0;exitDy=0;entryX=0;entryY=0.5;entryDx=0;entryDy=0;endArrow=ERmany;endFill=0;startArrow=ERone;startFill=0;" parent="1" source="jQQM8Qkv6BH_GQ0o3fSP-5" target="BBihDYNwTmgTMU0dD1d8-3" edge="1"><mxGeometry relative="1" as="geometry"/></mxCell><mxCell id="jQQM8Qkv6BH_GQ0o3fSP-5" value="&lt;div style=&quot;box-sizing:border-box;width:100%;background:#e4e4e4;padding:2px;&quot;&gt;site_options&lt;/div&gt;&lt;table style=&quot;width:100%;font-size:1em;&quot; cellpadding=&quot;2&quot; cellspacing=&quot;0&quot;&gt;&lt;tbody&gt;&lt;tr&gt;&lt;td&gt;PK&lt;/td&gt;&lt;td&gt;site_option_id&lt;/td&gt;&lt;/tr&gt;&lt;tr&gt;&lt;td&gt;FK1&lt;/td&gt;&lt;td&gt;site_id&lt;/td&gt;&lt;/tr&gt;&lt;tr&gt;&lt;td&gt;FK2&lt;/td&gt;&lt;td&gt;option_id&lt;/td&gt;&lt;/tr&gt;&lt;tr&gt;&lt;td&gt;FK3&lt;/td&gt;&lt;td&gt;result_table_id&lt;/td&gt;&lt;/tr&gt;&lt;tr&gt;&lt;td&gt;boolean&lt;/td&gt;&lt;td&gt;run&lt;/td&gt;&lt;/tr&gt;&lt;/tbody&gt;&lt;/table&gt;" style="verticalAlign=top;align=left;overflow=fill;html=1;whiteSpace=wrap;" parent="1" vertex="1"><mxGeometry x="280" y="160" width="160" height="120" as="geometry"/></mxCell><mxCell id="BBihDYNwTmgTMU0dD1d8-1" value="&lt;div style=&quot;box-sizing:border-box;width:100%;background:#e4e4e4;padding:2px;&quot;&gt;reports&lt;/div&gt;&lt;table style=&quot;width:100%;font-size:1em;&quot; cellpadding=&quot;2&quot; cellspacing=&quot;0&quot;&gt;&lt;tbody&gt;&lt;tr&gt;&lt;td&gt;PK&lt;/td&gt;&lt;td&gt;report_id&lt;/td&gt;&lt;/tr&gt;&lt;tr&gt;&lt;td&gt;FK1&lt;/td&gt;&lt;td&gt;site_operation_id&lt;/td&gt;&lt;/tr&gt;&lt;tr&gt;&lt;td&gt;timestampz&lt;/td&gt;&lt;td&gt;parse_date&lt;/td&gt;&lt;/tr&gt;&lt;tr&gt;&lt;td&gt;text&lt;/td&gt;&lt;td&gt;message&lt;/td&gt;&lt;/tr&gt;&lt;tr&gt;&lt;td&gt;boolean&lt;/td&gt;&lt;td&gt;success&lt;/td&gt;&lt;/tr&gt;&lt;/tbody&gt;&lt;/table&gt;" style="verticalAlign=top;align=left;overflow=fill;html=1;whiteSpace=wrap;" parent="1" vertex="1"><mxGeometry x="520" y="80" width="160" height="120" as="geometry"/></mxCell><mxCell id="BBihDYNwTmgTMU0dD1d8-6" style="edgeStyle=orthogonalEdgeStyle;rounded=0;orthogonalLoop=1;jettySize=auto;html=1;exitX=0.5;exitY=1;exitDx=0;exitDy=0;entryX=0.5;entryY=0;entryDx=0;entryDy=0;endArrow=ERone;endFill=0;startArrow=ERone;startFill=0;" parent="1" source="BBihDYNwTmgTMU0dD1d8-3" target="BBihDYNwTmgTMU0dD1d8-5" edge="1"><mxGeometry relative="1" as="geometry"/></mxCell><mxCell id="BBihDYNwTmgTMU0dD1d8-3" value="&lt;div style=&quot;box-sizing:border-box;width:100%;background:#e4e4e4;padding:2px;&quot;&gt;result_tables&lt;/div&gt;&lt;table style=&quot;width:100%;font-size:1em;&quot; cellpadding=&quot;2&quot; cellspacing=&quot;0&quot;&gt;&lt;tbody&gt;&lt;tr&gt;&lt;td&gt;PK&lt;/td&gt;&lt;td&gt;result_table_id&lt;/td&gt;&lt;/tr&gt;&lt;tr&gt;&lt;td&gt;varchar(20)&lt;/td&gt;&lt;td&gt;schema&lt;/td&gt;&lt;/tr&gt;&lt;tr&gt;&lt;td&gt;varchar(50)&lt;/td&gt;&lt;td&gt;name&lt;/td&gt;&lt;/tr&gt;&lt;/tbody&gt;&lt;/table&gt;" style="verticalAlign=top;align=left;overflow=fill;html=1;whiteSpace=wrap;" parent="1" vertex="1"><mxGeometry x="520" y="240" width="160" height="120" as="geometry"/></mxCell><mxCell id="BBihDYNwTmgTMU0dD1d8-5" value="&lt;div style=&quot;box-sizing:border-box;width:100%;background:#e4e4e4;padding:2px;&quot;&gt;result_tables_insert&lt;/div&gt;&lt;table style=&quot;width:100%;font-size:1em;&quot; cellpadding=&quot;2&quot; cellspacing=&quot;0&quot;&gt;&lt;tbody&gt;&lt;tr&gt;&lt;td&gt;FK1(PK)&lt;/td&gt;&lt;td&gt;result_table_id&lt;/td&gt;&lt;/tr&gt;&lt;tr&gt;&lt;td&gt;varchar(250)&lt;/td&gt;&lt;td&gt;insert_order&lt;/td&gt;&lt;/tr&gt;&lt;/tbody&gt;&lt;/table&gt;" style="verticalAlign=top;align=left;overflow=fill;html=1;whiteSpace=wrap;" parent="1" vertex="1"><mxGeometry x="520" y="400" width="160" height="80" as="geometry"/></mxCell><mxCell id="BBihDYNwTmgTMU0dD1d8-7" value="&lt;b style=&quot;border-color: var(--border-color); font-size: 13px;&quot;&gt;Сайты для парсинга (sites)&lt;/b&gt;&lt;br style=&quot;border-color: var(--border-color); font-size: 13px;&quot;&gt;ID (site_id) *serial&lt;br style=&quot;border-color: var(--border-color); font-size: 13px;&quot;&gt;&lt;span style=&quot;font-size: 13px;&quot;&gt;Url сайта (url) *varchar(100)&lt;/span&gt;&lt;br style=&quot;border-color: var(--border-color); font-size: 13px;&quot;&gt;&lt;span style=&quot;font-size: 13px;&quot;&gt;Название сайта (name) *varchar(100)&lt;/span&gt;&lt;br style=&quot;border-color: var(--border-color); font-size: 13px;&quot;&gt;&lt;span style=&quot;font-size: 13px;&quot;&gt;Дата добавления сайта в таблицу (date_create) *timestampz&lt;/span&gt;&lt;br style=&quot;border-color: var(--border-color); font-size: 13px;&quot;&gt;&lt;span style=&quot;font-size: 13px;&quot;&gt;Дата обновления данных (date_update) *timestampz&lt;/span&gt;" style="text;html=1;strokeColor=default;fillColor=none;align=center;verticalAlign=middle;whiteSpace=wrap;rounded=0;dashed=1;" parent="1" vertex="1"><mxGeometry x="40" y="560" width="390" height="110" as="geometry"/></mxCell><mxCell id="BBihDYNwTmgTMU0dD1d8-8" value="&lt;b style=&quot;border-color: var(--border-color); font-size: 13px;&quot;&gt;Варианты парсинга (options)&lt;br style=&quot;border-color: var(--border-color);&quot;&gt;&lt;/b&gt;ID (option_id) *serial&lt;br style=&quot;border-color: var(--border-color); font-size: 13px;&quot;&gt;&lt;span style=&quot;font-size: 13px;&quot;&gt;Название парсинга (name) *varchar(100)&lt;/span&gt;&lt;br style=&quot;border-color: var(--border-color); font-size: 13px;&quot;&gt;&lt;span style=&quot;font-size: 13px;&quot;&gt;Краткое описание парсинга (description) *varchar(250)&lt;/span&gt;&lt;br style=&quot;border-color: var(--border-color); font-size: 13px;&quot;&gt;&lt;span style=&quot;font-size: 13px;&quot;&gt;Настройки парсинга (settings) *json&lt;/span&gt;" style="text;html=1;strokeColor=default;fillColor=none;align=center;verticalAlign=middle;whiteSpace=wrap;rounded=0;dashed=1;" parent="1" vertex="1"><mxGeometry x="440" y="560" width="360" height="110" as="geometry"/></mxCell><mxCell id="BBihDYNwTmgTMU0dD1d8-9" value="&lt;b style=&quot;border-color: var(--border-color); font-size: 13px;&quot;&gt;Привязка сайта к вариантам парсинга (site_options)&lt;br style=&quot;border-color: var(--border-color);&quot;&gt;&lt;/b&gt;ID (site_option_id) *serial&lt;br style=&quot;border-color: var(--border-color); font-size: 13px;&quot;&gt;&lt;span style=&quot;font-size: 13px;&quot;&gt;id сайта (site_id) *int4&lt;/span&gt;&lt;br style=&quot;border-color: var(--border-color); font-size: 13px;&quot;&gt;&lt;span style=&quot;font-size: 13px;&quot;&gt;id парсинга (option_id) *int4&lt;/span&gt;&lt;br style=&quot;border-color: var(--border-color); font-size: 13px;&quot;&gt;&lt;span style=&quot;font-size: 13px;&quot;&gt;id результирующей таблицы (result_table_id) *int4&lt;br&gt;флаг работы парсинга (run) *boolean&lt;br&gt;&lt;/span&gt;" style="text;html=1;strokeColor=default;fillColor=none;align=center;verticalAlign=middle;whiteSpace=wrap;rounded=0;dashed=1;" parent="1" vertex="1"><mxGeometry x="40" y="680" width="400" height="110" as="geometry"/></mxCell><mxCell id="BBihDYNwTmgTMU0dD1d8-10" value="&lt;b style=&quot;border-color: var(--border-color); font-size: 13px;&quot;&gt;Результирующие таблицы (result_tables)&lt;br style=&quot;border-color: var(--border-color);&quot;&gt;&lt;/b&gt;ID (result_table_id) *serial&lt;br style=&quot;border-color: var(--border-color); font-size: 13px;&quot;&gt;&lt;span style=&quot;font-size: 13px;&quot;&gt;Схема таблицы с результатами парсинга (schema) *varchar(20)&lt;/span&gt;&lt;br style=&quot;border-color: var(--border-color); font-size: 13px;&quot;&gt;&lt;span style=&quot;font-size: 13px;&quot;&gt;Таблица с результатами парсинга (name) *varchar(50)&lt;/span&gt;" style="text;html=1;strokeColor=default;fillColor=none;align=center;verticalAlign=middle;whiteSpace=wrap;rounded=0;dashed=1;" parent="1" vertex="1"><mxGeometry x="40" y="800" width="390" height="120" as="geometry"/></mxCell><mxCell id="BBihDYNwTmgTMU0dD1d8-12" value="&lt;b style=&quot;border-color: var(--border-color); font-size: 13px;&quot;&gt;Инструкция на вставку полей в результирующие таблицы (result_tables_insert)&lt;br style=&quot;border-color: var(--border-color);&quot;&gt;&lt;/b&gt;ID (result_table_id) *int4&lt;br style=&quot;border-color: var(--border-color); font-size: 13px;&quot;&gt;&lt;span style=&quot;font-size: 13px;&quot;&gt;Порядок полей на вставку (insert_order) *varchar(250)&lt;/span&gt;" style="text;html=1;strokeColor=default;fillColor=none;align=center;verticalAlign=middle;whiteSpace=wrap;rounded=0;dashed=1;" parent="1" vertex="1"><mxGeometry x="440" y="800" width="360" height="120" as="geometry"/></mxCell><mxCell id="BBihDYNwTmgTMU0dD1d8-16" value="&lt;b style=&quot;border-color: var(--border-color); font-size: 13px;&quot;&gt;Отчет парсинга (reports)&lt;br style=&quot;border-color: var(--border-color);&quot;&gt;&lt;/b&gt;ID (report_id) *serial&lt;br style=&quot;border-color: var(--border-color); font-size: 13px;&quot;&gt;&lt;span style=&quot;border-color: var(--border-color); font-size: 13px;&quot;&gt;id привязки сайта к парсингу (site_option_id) *int4&lt;/span&gt;&lt;br style=&quot;border-color: var(--border-color); font-size: 13px;&quot;&gt;&lt;span style=&quot;border-color: var(--border-color); font-size: 13px;&quot;&gt;Дата парсинга (parse_date) *timestampz&lt;/span&gt;&lt;br style=&quot;border-color: var(--border-color); font-size: 13px;&quot;&gt;&lt;span style=&quot;border-color: var(--border-color); font-size: 13px;&quot;&gt;Текст отчета (message) *text&lt;/span&gt;&lt;br style=&quot;border-color: var(--border-color); font-size: 13px;&quot;&gt;&lt;span style=&quot;border-color: var(--border-color); font-size: 13px;&quot;&gt;Флаг успеха (success) *boolean&lt;/span&gt;" style="text;html=1;strokeColor=default;fillColor=none;align=center;verticalAlign=middle;whiteSpace=wrap;rounded=0;dashed=1;" parent="1" vertex="1"><mxGeometry x="450" y="680" width="350" height="110" as="geometry"/></mxCell></root></mxGraphModel></diagram></mxfile>